<svg xmlns="http://www.w3.org/2000/svg" viewBox="0 0 882 144" role="img" aria-labelledby="title desc">
  <title id="title">DataPress</title>
  <desc id="desc">ASCII art wordmark for DataPress</desc>
  <path fill="#f7a41d" shape-rendering="crispEdges" d="M0 0h14v24h-14zM14 0h14v24h-14zM28 0h14v24h-14zM42 0h14v24h-14zM56 0h14v24h-14zM70 0h14v24h-14zM84 8h11v2h-11zM84 14h5v2h-5zM93 8h2v16h-2zM87 14h2v10h-2zM126 0h14v24h-14zM140 0h14v24h-14zM154 0h14v24h-14zM168 0h14v24h-14zM182 0h14v24h-14zM196 8h11v2h-11zM196 14h5v2h-5zM205 8h2v16h-2zM199 14h2v10h-2zM224 0h14v24h-14zM238 0h14v24h-14zM252 0h14v24h-14zM266 0h14v24h-14zM280 0h14v24h-14zM294 0h14v24h-14zM308 0h14v24h-14zM322 0h14v24h-14zM336 8h11v2h-11zM336 14h5v2h-5zM345 8h2v16h-2zM339 14h2v10h-2zM364 0h14v24h-14zM378 0h14v24h-14zM392 0h14v24h-14zM406 0h14v24h-14zM420 0h14v24h-14zM434 8h11v2h-11zM434 14h5v2h-5zM443 8h2v16h-2zM437 14h2v10h-2zM462 0h14v24h-14zM476 0h14v24h-14zM490 0h14v24h-14zM504 0h14v24h-14zM518 0h14v24h-14zM532 0h14v24h-14zM546 8h11v2h-11zM546 14h5v2h-5zM555 8h2v16h-2zM549 14h2v10h-2zM658 0h14v24h-14zM672 0h14v24h-14zM686 0h14v24h-14zM700 0h14v24h-14zM714 0h14v24h-14zM728 0h14v24h-14zM742 8h11v2h-11zM742 14h5v2h-5zM751 8h2v16h-2zM745 14h2v10h-2zM770 0h14v24h-14zM784 0h14v24h-14zM798 0h14v24h-14zM812 0h14v24h-14zM826 0h14v24h-14zM840 0h14v24h-14zM854 0h14v24h-14zM868 8h11v2h-11zM868 14h5v2h-5zM877 8h2v16h-2zM871 14h2v10h-2zM0 24h14v24h-14zM14 24h14v24h-14zM31 32h11v2h-11zM37 38h5v2h-5zM31 32h2v16h-2zM37 38h2v10h-2zM42 32h14v2h-14zM42 38h14v2h-14zM56 32h14v2h-14zM56 38h14v2h-14zM70 24h14v24h-14zM84 24h14v24h-14zM98 32h11v2h-11zM98 38h5v2h-5zM107 32h2v16h-2zM101 38h2v10h-2zM112 24h14v24h-14zM126 24h14v24h-14zM143 32h11v2h-11zM149 38h5v2h-5zM143 32h2v16h-2zM149 38h2v10h-2zM154 32h14v2h-14zM154 38h14v2h-14zM168 32h14v2h-14zM168 38h14v2h-14zM182 24h14v24h-14zM196 24h14v24h-14zM210 32h11v2h-11zM210 38h5v2h-5zM219 32h2v16h-2zM213 38h2v10h-2zM227 38h11v2h-11zM233 32h5v2h-5zM227 24h2v16h-2zM233 24h2v10h-2zM238 32h14v2h-14zM238 38h14v2h-14zM252 32h14v2h-14zM252 38h14v2h-14zM266 24h14v24h-14zM280 24h14v24h-14zM297 32h11v2h-11zM303 38h5v2h-5zM297 32h2v16h-2zM303 38h2v10h-2zM308 32h14v2h-14zM308 38h14v2h-14zM322 32h14v2h-14zM322 38h14v2h-14zM336 38h11v2h-11zM336 32h5v2h-5zM345 24h2v16h-2zM339 24h2v10h-2zM350 24h14v24h-14zM364 24h14v24h-14zM381 32h11v2h-11zM387 38h5v2h-5zM381 32h2v16h-2zM387 38h2v10h-2zM392 32h14v2h-14zM392 38h14v2h-14zM406 32h14v2h-14zM406 38h14v2h-14zM420 24h14v24h-14zM434 24h14v24h-14zM448 32h11v2h-11zM448 38h5v2h-5zM457 32h2v16h-2zM451 38h2v10h-2zM462 24h14v24h-14zM476 24h14v24h-14zM493 32h11v2h-11zM499 38h5v2h-5zM493 32h2v16h-2zM499 38h2v10h-2zM504 32h14v2h-14zM504 38h14v2h-14zM518 32h14v2h-14zM518 38h14v2h-14zM532 24h14v24h-14zM546 24h14v24h-14zM560 32h11v2h-11zM560 38h5v2h-5zM569 32h2v16h-2zM563 38h2v10h-2zM658 24h14v24h-14zM672 24h14v24h-14zM689 32h11v2h-11zM695 38h5v2h-5zM689 32h2v16h-2zM695 38h2v10h-2zM700 32h14v2h-14zM700 38h14v2h-14zM714 32h14v2h-14zM714 38h14v2h-14zM728 24h14v24h-14zM742 24h14v24h-14zM756 32h11v2h-11zM756 38h5v2h-5zM765 32h2v16h-2zM759 38h2v10h-2zM770 24h14v24h-14zM784 24h14v24h-14zM801 32h11v2h-11zM807 38h5v2h-5zM801 32h2v16h-2zM807 38h2v10h-2zM812 32h14v2h-14zM812 38h14v2h-14zM826 32h14v2h-14zM826 38h14v2h-14zM840 32h14v2h-14zM840 38h14v2h-14zM854 32h14v2h-14zM854 38h14v2h-14zM868 38h11v2h-11zM868 32h5v2h-5zM877 24h2v16h-2zM871 24h2v10h-2zM0 48h14v24h-14zM14 48h14v24h-14zM31 48h2v24h-2zM37 48h2v24h-2zM70 48h14v24h-14zM84 48h14v24h-14zM101 48h2v24h-2zM107 48h2v24h-2zM112 48h14v24h-14zM126 48h14v24h-14zM140 48h14v24h-14zM154 48h14v24h-14zM168 48h14v24h-14zM182 48h14v24h-14zM196 48h14v24h-14zM213 48h2v24h-2zM219 48h2v24h-2zM266 48h14v24h-14zM280 48h14v24h-14zM297 48h2v24h-2zM303 48h2v24h-2zM350 48h14v24h-14zM364 48h14v24h-14zM378 48h14v24h-14zM392 48h14v24h-14zM406 48h14v24h-14zM420 48h14v24h-14zM434 48h14v24h-14zM451 48h2v24h-2zM457 48h2v24h-2zM462 48h14v24h-14zM476 48h14v24h-14zM490 48h14v24h-14zM504 48h14v24h-14zM518 48h14v24h-14zM532 48h14v24h-14zM549 56h11v2h-11zM555 62h5v2h-5zM549 56h2v16h-2zM555 62h2v10h-2zM560 62h11v2h-11zM560 56h5v2h-5zM569 48h2v16h-2zM563 48h2v10h-2zM574 48h14v24h-14zM588 48h14v24h-14zM602 48h14v24h-14zM616 48h14v24h-14zM630 48h14v24h-14zM644 56h11v2h-11zM644 62h5v2h-5zM653 56h2v16h-2zM647 62h2v10h-2zM658 48h14v24h-14zM672 48h14v24h-14zM686 48h14v24h-14zM700 48h14v24h-14zM714 48h14v24h-14zM728 48h14v24h-14zM745 56h11v2h-11zM751 62h5v2h-5zM745 56h2v16h-2zM751 62h2v10h-2zM756 62h11v2h-11zM756 56h5v2h-5zM765 48h2v16h-2zM759 48h2v10h-2zM770 48h14v24h-14zM784 48h14v24h-14zM798 48h14v24h-14zM812 48h14v24h-14zM826 48h14v24h-14zM840 48h14v24h-14zM854 48h14v24h-14zM868 56h11v2h-11zM868 62h5v2h-5zM877 56h2v16h-2zM871 62h2v10h-2zM0 72h14v24h-14zM14 72h14v24h-14zM31 72h2v24h-2zM37 72h2v24h-2zM70 72h14v24h-14zM84 72h14v24h-14zM101 72h2v24h-2zM107 72h2v24h-2zM112 72h14v24h-14zM126 72h14v24h-14zM143 80h11v2h-11zM149 86h5v2h-5zM143 80h2v16h-2zM149 86h2v10h-2zM154 80h14v2h-14zM154 86h14v2h-14zM168 80h14v2h-14zM168 86h14v2h-14zM182 72h14v24h-14zM196 72h14v24h-14zM213 72h2v24h-2zM219 72h2v24h-2zM266 72h14v24h-14zM280 72h14v24h-14zM297 72h2v24h-2zM303 72h2v24h-2zM350 72h14v24h-14zM364 72h14v24h-14zM381 80h11v2h-11zM387 86h5v2h-5zM381 80h2v16h-2zM387 86h2v10h-2zM392 80h14v2h-14zM392 86h14v2h-14zM406 80h14v2h-14zM406 86h14v2h-14zM420 72h14v24h-14zM434 72h14v24h-14zM451 72h2v24h-2zM457 72h2v24h-2zM462 72h14v24h-14zM476 72h14v24h-14zM493 80h11v2h-11zM499 86h5v2h-5zM493 80h2v16h-2zM499 86h2v10h-2zM504 80h14v2h-14zM504 86h14v2h-14zM518 80h14v2h-14zM518 86h14v2h-14zM532 80h14v2h-14zM532 86h14v2h-14zM546 86h11v2h-11zM546 80h5v2h-5zM555 72h2v16h-2zM549 72h2v10h-2zM577 86h11v2h-11zM583 80h5v2h-5zM577 72h2v16h-2zM583 72h2v10h-2zM588 80h14v2h-14zM588 86h14v2h-14zM602 80h14v2h-14zM602 86h14v2h-14zM616 80h14v2h-14zM616 86h14v2h-14zM630 80h14v2h-14zM630 86h14v2h-14zM644 86h11v2h-11zM644 80h5v2h-5zM653 72h2v16h-2zM647 72h2v10h-2zM658 72h14v24h-14zM672 72h14v24h-14zM689 80h11v2h-11zM695 86h5v2h-5zM689 80h2v16h-2zM695 86h2v10h-2zM700 80h14v2h-14zM700 86h14v2h-14zM714 80h14v2h-14zM714 86h14v2h-14zM728 72h14v24h-14zM742 72h14v24h-14zM756 80h11v2h-11zM756 86h5v2h-5zM765 80h2v16h-2zM759 86h2v10h-2zM773 86h11v2h-11zM779 80h5v2h-5zM773 72h2v16h-2zM779 72h2v10h-2zM784 80h14v2h-14zM784 86h14v2h-14zM798 80h14v2h-14zM798 86h14v2h-14zM812 80h14v2h-14zM812 86h14v2h-14zM826 80h14v2h-14zM826 86h14v2h-14zM840 72h14v24h-14zM854 72h14v24h-14zM871 72h2v24h-2zM877 72h2v24h-2zM0 96h14v24h-14zM14 96h14v24h-14zM28 96h14v24h-14zM42 96h14v24h-14zM56 96h14v24h-14zM70 96h14v24h-14zM87 104h11v2h-11zM93 110h5v2h-5zM87 104h2v16h-2zM93 110h2v10h-2zM98 110h11v2h-11zM98 104h5v2h-5zM107 96h2v16h-2zM101 96h2v10h-2zM112 96h14v24h-14zM126 96h14v24h-14zM143 96h2v24h-2zM149 96h2v24h-2zM182 96h14v24h-14zM196 96h14v24h-14zM213 96h2v24h-2zM219 96h2v24h-2zM266 96h14v24h-14zM280 96h14v24h-14zM297 96h2v24h-2zM303 96h2v24h-2zM350 96h14v24h-14zM364 96h14v24h-14zM381 96h2v24h-2zM387 96h2v24h-2zM420 96h14v24h-14zM434 96h14v24h-14zM451 96h2v24h-2zM457 96h2v24h-2zM462 96h14v24h-14zM476 96h14v24h-14zM493 96h2v24h-2zM499 96h2v24h-2zM658 96h14v24h-14zM672 96h14v24h-14zM689 96h2v24h-2zM695 96h2v24h-2zM728 96h14v24h-14zM742 96h14v24h-14zM759 96h2v24h-2zM765 96h2v24h-2zM770 96h14v24h-14zM784 96h14v24h-14zM798 96h14v24h-14zM812 96h14v24h-14zM826 96h14v24h-14zM840 96h14v24h-14zM854 96h14v24h-14zM871 96h2v24h-2zM877 96h2v24h-2zM3 134h11v2h-11zM9 128h5v2h-5zM3 120h2v16h-2zM9 120h2v10h-2zM14 128h14v2h-14zM14 134h14v2h-14zM28 128h14v2h-14zM28 134h14v2h-14zM42 128h14v2h-14zM42 134h14v2h-14zM56 128h14v2h-14zM56 134h14v2h-14zM70 128h14v2h-14zM70 134h14v2h-14zM84 134h11v2h-11zM84 128h5v2h-5zM93 120h2v16h-2zM87 120h2v10h-2zM115 134h11v2h-11zM121 128h5v2h-5zM115 120h2v16h-2zM121 120h2v10h-2zM126 128h14v2h-14zM126 134h14v2h-14zM140 134h11v2h-11zM140 128h5v2h-5zM149 120h2v16h-2zM143 120h2v10h-2zM185 134h11v2h-11zM191 128h5v2h-5zM185 120h2v16h-2zM191 120h2v10h-2zM196 128h14v2h-14zM196 134h14v2h-14zM210 134h11v2h-11zM210 128h5v2h-5zM219 120h2v16h-2zM213 120h2v10h-2zM269 134h11v2h-11zM275 128h5v2h-5zM269 120h2v16h-2zM275 120h2v10h-2zM280 128h14v2h-14zM280 134h14v2h-14zM294 134h11v2h-11zM294 128h5v2h-5zM303 120h2v16h-2zM297 120h2v10h-2zM353 134h11v2h-11zM359 128h5v2h-5zM353 120h2v16h-2zM359 120h2v10h-2zM364 128h14v2h-14zM364 134h14v2h-14zM378 134h11v2h-11zM378 128h5v2h-5zM387 120h2v16h-2zM381 120h2v10h-2zM423 134h11v2h-11zM429 128h5v2h-5zM423 120h2v16h-2zM429 120h2v10h-2zM434 128h14v2h-14zM434 134h14v2h-14zM448 134h11v2h-11zM448 128h5v2h-5zM457 120h2v16h-2zM451 120h2v10h-2zM465 134h11v2h-11zM471 128h5v2h-5zM465 120h2v16h-2zM471 120h2v10h-2zM476 128h14v2h-14zM476 134h14v2h-14zM490 134h11v2h-11zM490 128h5v2h-5zM499 120h2v16h-2zM493 120h2v10h-2zM661 134h11v2h-11zM667 128h5v2h-5zM661 120h2v16h-2zM667 120h2v10h-2zM672 128h14v2h-14zM672 134h14v2h-14zM686 134h11v2h-11zM686 128h5v2h-5zM695 120h2v16h-2zM689 120h2v10h-2zM731 134h11v2h-11zM737 128h5v2h-5zM731 120h2v16h-2zM737 120h2v10h-2zM742 128h14v2h-14zM742 134h14v2h-14zM756 134h11v2h-11zM756 128h5v2h-5zM765 120h2v16h-2zM759 120h2v10h-2zM773 134h11v2h-11zM779 128h5v2h-5zM773 120h2v16h-2zM779 120h2v10h-2zM784 128h14v2h-14zM784 134h14v2h-14zM798 128h14v2h-14zM798 134h14v2h-14zM812 128h14v2h-14zM812 134h14v2h-14zM826 128h14v2h-14zM826 134h14v2h-14zM840 128h14v2h-14zM840 134h14v2h-14zM854 128h14v2h-14zM854 134h14v2h-14zM868 134h11v2h-11zM868 128h5v2h-5zM877 120h2v16h-2zM871 120h2v10h-2z"/>
</svg>

